# xmcd
#
# Track frame offsets:
#	150
#	4870
#	11196
#	45759
#	67639
#	96412
#	127487
#	154848
#	181217
#	215559
#	246738
#	261591
#	292441
#	323374
#
# Disc length: 4652 seconds
#
# Revision: 1
# Processed by: cddbd v1.5.2PL0 Copyright (c) Steve Scherf et al.
# Submitted via: audiograbber 1.83.01
#
DISCID=d4122a0e
DTITLE=Francesco Diaz - A House Affair Vol. 2 - Cd 2
DYEAR=2007
DGENRE=House
TTITLE0=Bongoloverz Feat. An-Tonic - Spirit of House (Spoken-Apella)
TTITLE1=Soul Central Feat. Kathy Brown - Strings of Life (Stronger On My Own) (
TTITLE1=Unreleased Reprise)
TTITLE2=Jarrier Modrow - Rare Soul (Julian Bendall's Afternoon Edit Mix)
TTITLE3=Soul Central Feat. Billie - In-ten-City
TTITLE4=Fanatix Feat. Alex Mills - Love Connection
TTITLE5=Los Dos Latinos (Locos) - Crazy Hornz
TTITLE6=Darkmountaingroup - Lose Control
TTITLE7=Dj Fudge - Mechouga (Spen and Karizma Remix)
TTITLE8=Master Kev and David Tobon Feat. John Crockett - Twisted (Thommy Davis and 
TTITLE8=DJ Spen Remix)
TTITLE9=Soul Central - Need you Now (Sergio Flores Remix)
TTITLE10=Fish Go Deep Feat. Tracey K. - The cure and the Cause (Balearic Soul D
TTITLE10=rums)
TTITLE11=Timmy Vegas and Ash - Cabbage Juice (Deep josh Mix)
TTITLE12=Rosie Gaines - Closer than Close (Soul Central Remix)
TTITLE13=Fedde Le Grand - Put your hands up for Detroit (Soul Central Loves Det
TTITLE13=roit Remix)
EXTD=
EXTT0=
EXTT1=
EXTT2=
EXTT3=
EXTT4=
EXTT5=
EXTT6=
EXTT7=
EXTT8=
EXTT9=
EXTT10=
EXTT11=
EXTT12=
EXTT13=
PLAYORDER=
